<svg xmlns="http://www.w3.org/2000/svg" width="27.174" height="27.174" viewBox="0 0 27.174 27.174">
  <g id="Setting_05" transform="translate(-228.356 -51.236)">
    <g id="Grupo_1069" data-name="Grupo 1069" transform="translate(229.102 51.982)">
      <path id="Trazado_199" data-name="Trazado 199" d="M1512.438,996.666l1.84-.882c.182,0,.261-1.962,1.948-2.052a5.4,5.4,0,0,1,1.011,0c.952.038,1.809.183,2.239,2.052a13.386,13.386,0,0,1,1.684.714" transform="translate(-1504.04 -993.71)" fill="none" stroke="#f90707" stroke-linejoin="round" stroke-width="1.5"/>
      <path id="Trazado_200" data-name="Trazado 200" d="M0,2.7a14.115,14.115,0,0,1,2.27-.626c.182,0,.261-1.962,1.948-2.052a5.374,5.374,0,0,1,1.011,0C6.181.06,7.038.2,7.468,2.073a8.156,8.156,0,0,1,1.8.7" transform="translate(18.767 0.739) rotate(45)" fill="none" stroke="#f90707" stroke-linejoin="round" stroke-width="1.5"/>
      <path id="Trazado_203" data-name="Trazado 203" d="M0,.163A12.082,12.082,0,0,0,2.111.784c.182,0,.261,1.962,1.948,2.052a5.369,5.369,0,0,0,1.011,0C6.022,2.8,6.879,2.652,7.309.784A14.975,14.975,0,0,0,9.456,0" transform="translate(8.915 2.872) rotate(135)" fill="none" stroke="#f90707" stroke-linejoin="round" stroke-width="1.5"/>
      <path id="Trazado_204" data-name="Trazado 204" d="M0,2.456a6.178,6.178,0,0,1,1.5-.382c.184,0,.263-1.962,1.968-2.052a5.485,5.485,0,0,1,1.022,0C5.449.06,6.315.2,6.749,2.073a1.886,1.886,0,0,0,.461.193A13.651,13.651,0,0,1,9.086,3" transform="translate(25.682 8.846) rotate(90)" fill="none" stroke="#f90707" stroke-linejoin="round" stroke-width="1.5"/>
      <path id="Trazado_205" data-name="Trazado 205" d="M1521.168,993.688h0l-1.889.836c-.182,0-.261,1.962-1.948,2.052a5.372,5.372,0,0,1-1.011,0c-.952-.038-1.809-.183-2.239-2.052a13.392,13.392,0,0,1-1.684-.715" transform="translate(-1503.836 -970.916)" fill="none" stroke="#f90707" stroke-linejoin="round" stroke-width="1.5"/>
      <path id="Trazado_206" data-name="Trazado 206" d="M0,2.682a13.951,13.951,0,0,1,2.254-.609C2.436,2.078,2.515.112,4.2.021a5.368,5.368,0,0,1,1.011,0C6.165.06,7.022.2,7.452,2.073a10.391,10.391,0,0,1,1.677.575" transform="translate(6.904 24.931) rotate(-135)" fill="none" stroke="#f90707" stroke-linejoin="round" stroke-width="1.5"/>
      <path id="Trazado_207" data-name="Trazado 207" d="M0,.345A8.934,8.934,0,0,0,2.145.929c.182,0,.261,1.962,1.948,2.052a5.368,5.368,0,0,0,1.011,0C6.056,2.943,6.913,2.8,7.343.929A13.414,13.414,0,0,0,9.655,0" transform="translate(16.637 22.731) rotate(-45)" fill="none" stroke="#f90707" stroke-linejoin="round" stroke-width="1.5"/>
      <path id="Trazado_208" data-name="Trazado 208" d="M0,2.366a5.7,5.7,0,0,1,1.412-.293C1.6,2.078,1.676.112,3.38.022A5.485,5.485,0,0,1,4.4.022C5.364.06,6.231.2,6.665,2.073A13.633,13.633,0,0,1,9,3" transform="translate(0 16.751) rotate(-90)" fill="none" stroke="#f90707" stroke-linejoin="round" stroke-width="1.5"/>
    </g>
    <g id="Elipse_24" data-name="Elipse 24" transform="translate(233.724 56.604)" fill="none" stroke="#f90707" stroke-width="1.5">
      <circle cx="8.218" cy="8.218" r="8.218" stroke="none"/>
      <circle cx="8.218" cy="8.218" r="7.468" fill="none"/>
    </g>
  </g>
</svg>
